<svg width="1065" height="832" viewBox="0 0 1065 832" fill="none" xmlns="http://www.w3.org/2000/svg">
<path d="M42.145 409.201C44.8153 390.277 45.5797 383.619 50.0691 340.052C50.8867 332.111 51.9141 322.195 52.3487 318.015C52.7834 313.836 53.8259 303.748 54.6648 295.599C55.5037 287.45 56.8974 274.112 57.7606 265.963C58.6254 257.814 59.3853 247.024 59.4506 241.989C59.5676 232.921 59.5965 232.775 62.6072 226.791C65.0905 221.857 66.0008 220.709 67.5859 220.524C68.8215 220.379 70.0616 220.895 71.0054 221.942C72.9203 224.068 72.8398 230.767 70.6741 249.626C69.8109 257.149 68.5981 268.945 67.9811 275.842C65.2911 305.936 62.9612 331.494 62.2713 338.532C60.715 354.345 60.5205 358.464 61.3063 358.949C61.7333 359.215 63.8412 357.057 65.9902 354.158C74.4142 342.794 81.4781 338.152 90.3459 338.152C98.9433 338.152 106.904 343.841 110.042 352.23C111.846 357.054 112.203 368.081 110.805 375.817C106.834 397.77 93.5496 424.56 78.8079 440.346C69.0297 450.817 62.402 451.686 52.9764 443.74C49.1663 440.525 46.4642 439.217 43.6435 439.217C42.2879 439.217 41.5903 438.502 40.6541 436.162C39.0401 432.133 39.1268 430.58 42.145 409.201ZM99.1727 357.669C96.4812 350.485 91.0997 348.344 84.3656 351.778C82.7334 352.611 80.2881 354.693 78.9325 356.405C76.1452 359.924 68.8215 377.774 62.4157 396.663C58.5448 408.08 58.1588 409.814 58.1071 416.04C58.0342 424.967 59.6208 432.881 61.9506 435.211C63.6269 436.885 63.8534 436.922 65.9597 435.832C71.0069 433.223 81.6331 418.195 88.469 404.005C97.8019 384.628 102.176 365.692 99.1727 357.669Z" fill="#D8D8D8"/>
<path d="M125.285 375.384C126.787 363.891 135.849 329.148 138.168 325.991C139.264 324.501 140.187 324.113 142.445 324.191C145.564 324.297 147.337 325.916 147.337 328.657C147.337 329.543 146.118 334.01 144.631 338.58C138.757 356.612 135.947 372.077 135.947 386.402C135.947 398.911 137.612 404.259 141.507 404.259C142.431 404.259 145.524 401.717 149.272 397.875C155.834 391.147 160.48 383.805 184.576 342.075C189.724 333.16 194.739 325.34 195.722 324.697C197.962 323.229 201.689 323.868 204.102 326.136C206.914 328.776 206.842 329.461 199.742 368.925C190.804 418.598 188.792 433.568 180.742 510.263C180.302 514.443 179.613 520.769 179.208 524.321C178.802 527.873 177.974 536.117 177.365 542.64C176.755 549.165 175.57 561.817 174.729 570.756C173.889 579.697 172.506 594.876 171.655 604.489C170.805 614.101 169.916 623.021 169.681 624.313C169.226 626.797 170.84 631.586 172.898 633.861C173.976 635.051 173.97 635.519 172.845 638.908C171.426 643.183 169.451 645.313 165.302 647.047C162.723 648.124 162.198 648.135 160.679 647.141C156.848 644.63 156.773 643.247 159 615.974C165.065 541.672 172.208 471.696 177.701 432.755C179.765 418.127 182.687 397.288 184.198 386.446C185.707 375.603 187.114 366.455 187.321 366.119C187.531 365.782 187.082 365.522 186.325 365.542C185.421 365.566 183.418 368.097 180.461 372.951C170.473 389.347 158.735 406.422 155.579 409.146C145.089 418.196 133.744 418.852 128.974 410.685C125.91 405.44 123.887 386.083 125.285 375.384Z" fill="#D8D8D8"/>
<path d="M447.432 216.845C449.803 212.955 453.633 210.488 457.303 210.488C461.527 210.488 463.13 211.443 464.969 215.043C466.899 218.83 466.898 222.105 464.958 226.016C463.086 229.797 460.446 231.803 456.677 232.308C448.796 233.365 443.133 223.896 447.432 216.845Z" fill="#D8D8D8"/>
<path d="M1.50902 149.133C3.50447 145.101 10.0273 138.522 15.9468 134.571C25.3967 128.259 53.365 118.571 87.2998 109.855C158.87 91.4717 218.837 79.458 337.681 59.6965C438.974 42.8529 433.56 43.7009 490.798 35.7373C508.977 33.2084 526.075 30.8056 528.792 30.3968C538.252 28.9773 590.447 22.3679 613.139 19.7174C620.452 18.8633 629.173 17.8375 632.516 17.4393C635.859 17.0411 644.58 16.0365 651.893 15.2068C659.206 14.3785 668.269 13.3374 672.03 12.8952C687.021 11.1277 719.155 7.48483 732.441 6.0441C781.21 0.755308 791.412 0.00762035 814.756 0.00306105C821.806 0.00154129 828.853 0 835.902 0C836.642 0.740126 837.384 1.48173 838.122 2.22186C841.476 5.57447 841.067 11.6642 837.355 13.6505C836.274 14.2296 834.633 13.9256 830.722 12.4226C823.01 9.46056 813.931 9.29492 790.952 11.6977C780.713 12.7691 767.205 14.1764 760.936 14.8268C739.512 17.0502 681.182 23.6066 652.273 27.0412C636.391 28.9273 620.49 30.8087 616.938 31.2206C564.719 37.2784 500.96 46.0747 434.946 56.3271C424.08 58.014 411.086 60.0232 406.071 60.7907C401.056 61.5566 390.283 63.2375 382.135 64.5232C373.986 65.8089 357.484 68.3895 345.466 70.2603C333.447 72.1297 322.941 74.0217 322.117 74.4609C321.292 74.9017 320.313 75.8546 319.941 76.5749C319.567 77.2968 319.029 84.8972 318.748 93.4656C318.044 114.75 315.61 145.773 312.993 166.794C312.576 170.138 311.56 178.515 310.734 185.411C308.178 206.738 304.64 236.129 303.091 248.862C299.908 275.07 293.996 330.049 291.365 357.905C289.613 376.473 287.303 401.893 286.017 416.796C285.366 424.319 284.499 434.064 284.09 438.453C283.414 445.702 282.569 455.994 279.169 498.483C278.549 506.214 277.693 517.5 277.263 523.56C276.834 529.619 276.135 539.195 275.71 544.836C275.284 550.478 274.261 564.327 273.436 575.611C272.613 586.896 271.436 602.82 270.822 610.996C267.561 654.463 264.397 703.965 262.062 748.105C261.641 756.046 260.897 768.356 260.407 775.461C259.916 782.566 259.543 797.584 259.577 808.835C259.647 831.493 259.667 831.402 254.815 831.539C250.201 831.671 249.052 829.689 248.208 820.163C247.438 811.458 247.916 781.882 249.117 764.063C249.511 758.211 250.194 746.585 250.637 738.226C251.508 721.775 252.026 713.474 254.863 670.597C257.4 632.255 258.169 621.163 258.998 610.946C259.391 606.139 259.912 599.13 260.16 595.368C260.407 591.607 260.938 584.598 261.334 579.791C261.731 574.984 262.746 561.648 263.588 550.155C264.43 538.663 265.457 525.155 265.872 520.14C266.286 515.125 267.312 501.617 268.152 490.125C272.207 434.681 277.573 376.16 285.221 303.953C285.863 297.894 286.907 287.976 287.544 281.917C290.134 257.286 293.42 229.362 296.31 207.448C300.47 175.892 302.082 163.11 303.932 147.037C305.693 131.732 307.815 81.8987 306.818 79.2178C306.359 77.9822 305.57 77.5081 303.976 77.5081C301.974 77.5081 275.862 82.0734 243.076 88.1555C168.765 101.941 82.9244 121.785 52.7252 132.16C33.8162 138.657 22.304 143.259 19.383 145.486C15.7994 148.22 11.1231 154.066 11.5304 155.305C11.921 156.496 19.342 157.957 28.9788 158.738C37.9333 159.466 40.5959 160.568 41.4302 163.895C41.8391 165.524 41.5154 166.276 39.7616 167.787C37.6339 169.615 37.3892 169.645 28.8177 169.147C10.4438 168.075 4.58352 166.179 1.62302 160.343C-0.506175 156.147 -0.536588 153.265 1.50902 149.133Z" fill="#D8D8D8"/>
<path d="M330.304 313.671C331.05 312.539 333.015 310.621 334.669 309.405C340.758 304.934 342.812 301.457 343.722 294.074C344.871 284.759 349.433 271.606 352.663 268.302C355.295 265.609 359.356 265.145 363.148 267.106C367.87 269.548 368.108 274.13 364.161 286.659C362.614 291.568 361.584 295.817 361.87 296.104C362.485 296.72 366.819 294.389 374.151 289.494C377.076 287.542 380.099 285.72 380.868 285.446C382.894 284.727 386.92 286.893 388.485 289.544C389.643 291.504 389.706 292.232 388.918 294.661C388.415 296.22 387.215 298.861 386.248 300.533C383.803 304.767 378.704 317.837 376.408 325.763C374.243 333.232 371.169 349.477 371.801 350.108C372.825 351.132 375.084 347.609 381.382 335.167C398.335 301.673 416.426 277.044 429.033 270.291C436.952 266.048 447.233 265.141 454.53 268.04C459.952 270.194 460.022 271.86 455.536 292.644C453.697 301.162 451.279 313.766 450.16 320.649C449.482 324.82 448.805 328.992 448.127 333.164C448.834 335.29 449.539 337.416 450.245 339.542C451.411 343.05 452.797 346.084 453.324 346.287C453.85 346.489 456.768 345.702 459.809 344.536C464.923 342.576 466.11 341.647 475.661 332.114C481.338 326.447 498.373 307.62 513.518 290.275C537.024 263.355 541 258.461 540.684 256.84C540.48 255.794 539.6 252.922 538.729 250.454C537.729 247.619 537.146 244.092 537.146 240.887C537.146 234.255 540.138 227.993 545.699 222.995C554.299 215.262 560.29 214.596 566.021 220.736C567.723 222.558 567.913 223.378 567.848 228.598C567.787 233.335 567.112 236.455 564.239 245.306C562.293 251.293 560.702 256.841 560.702 257.638C560.702 258.434 564.891 263.977 570.011 269.954C575.131 275.931 580.237 281.922 581.359 283.267C582.482 284.613 583.707 285.715 584.082 285.715C584.704 285.715 613.701 256.856 623.02 246.961C634.681 234.581 647.855 216.574 656.653 200.988C658.083 198.455 659.511 195.923 660.941 193.39C661.212 190.096 661.482 186.804 661.753 183.511C664.701 147.622 665.101 140.848 664.3 140.354C663.47 139.841 643.266 143.616 623.012 148.066C607.976 151.37 570.631 159.517 542.085 165.724C532.407 167.829 522.073 170.561 518.925 171.848C514.339 173.724 512.468 174.107 509.211 173.838C503.975 173.405 503.486 172.842 504.697 168.658C506.355 162.924 507.535 162.499 545.884 153.832C587.758 144.366 656.429 129.179 657.387 129.172C657.915 129.167 660.083 128.356 662.204 127.368C666.894 125.184 668.154 122.881 669.321 114.362C671.274 100.102 674.735 90.661 679.935 85.3934C683.346 81.939 686.551 80.5469 691.096 80.5469C694.253 80.5469 694.995 80.8994 697.873 83.7779C699.68 85.5849 701.514 88.3508 702.033 90.0469C702.551 91.749 703.063 98.7187 703.197 105.901C703.328 112.951 703.72 118.995 704.066 119.333C704.414 119.67 711.881 118.623 720.657 117.008C748.867 111.813 798.19 102.64 824.989 97.6032C839.324 94.9102 852.42 92.705 854.09 92.705C861.704 92.705 863.313 101.729 856.105 104.006C854.748 104.433 843.208 106.679 830.461 108.995C817.713 111.311 797.196 115.07 784.868 117.346C772.539 119.623 749.299 123.904 733.226 126.859C704.475 132.144 703.96 132.271 701.507 134.648C700.135 135.977 698.797 137.771 698.536 138.632C696.932 143.904 687.712 166.316 683.039 176.292C672.928 197.885 672.567 199.736 671.811 234.043C671.198 261.814 671.75 280.939 673.49 292.174C674.94 301.528 678.642 313.451 680.098 313.451C683.688 313.451 695.919 292.319 718.974 246.282C725.326 233.599 729.311 226.569 731.597 224.011C734.81 220.419 741.094 216.595 745.55 215.52C750.142 214.412 751.945 211.586 756.028 199.089C762.699 178.674 767.156 171.357 774.053 169.5C781.79 167.417 787.889 173.617 787.903 183.579C787.909 188.023 785.26 197.774 782.795 202.374C781.579 204.646 777.431 209.517 772.98 213.906C764.563 222.203 762.503 225.475 761.421 232.241C760.419 238.521 762.136 248.481 764.223 248.481C765.773 248.481 771.219 241.37 780.518 227.204C786.141 218.636 792.137 209.867 793.84 207.716C797.641 202.915 804.719 197.377 810.343 194.803C816.578 191.949 816.547 192.019 819.093 174.392C819.576 171.049 820.503 167.715 821.154 166.984C822.783 165.152 826.841 165.274 828.587 167.202C829.924 168.68 829.941 169.402 828.941 182.97C827.626 200.806 827.605 202.3 828.655 202.659C829.123 202.82 832.333 197.722 835.787 191.33C846.376 171.739 851.193 163.935 855.221 159.848C862.826 152.131 871.634 149.719 876.055 154.14C879.292 157.377 879.57 160.636 877.61 172.452C871.809 207.434 870.341 223.688 872.248 231.843C873.836 238.634 876.569 243.546 881.029 247.622C890.616 256.384 903.864 257.154 924.025 250.127C930.188 247.98 973.218 230.811 1023.09 210.601C1046.54 201.098 1057.31 197.706 1060.46 198.827C1064.46 200.25 1065.94 205.151 1063.14 207.684C1062.39 208.362 1055.17 211.171 1047.09 213.926C1027.83 220.492 1019.85 223.682 964.96 246.764C921.303 265.124 917.903 266.192 903.029 266.206C878.865 266.232 864.085 255.264 860.351 234.539C858.727 225.525 859.424 216.914 864.692 180.999C866.398 169.353 866.26 167.365 863.809 168.306C862.119 168.955 858.985 174.183 847.178 196.049C841.198 207.125 835.292 217.674 834.055 219.491C831.049 223.905 825.819 226.013 821.749 224.45C819.532 223.599 816.714 216.792 816.24 211.148C815.997 208.25 815.527 205.71 815.196 205.505C814.863 205.3 812.047 207.353 808.936 210.064C803.498 214.808 800.979 218.183 788.772 237.083C784.124 244.279 777.626 252.528 773.91 255.948C768.174 261.226 763.311 262.571 757.995 260.352C752.592 258.094 750.288 252.44 749.544 239.595C749.282 235.08 748.908 230.615 748.715 229.674C748.234 227.33 746.217 227.504 742.487 230.207C739.665 232.251 737.945 235.379 723.03 265.574C702.881 306.369 700.438 310.53 690.948 320.202C680.318 331.03 670.601 326.772 664.806 308.747C661.064 297.108 660.883 294.951 660.485 257.41C660.187 229.375 659.903 221.885 659.142 221.885C658.104 221.885 655.257 224.859 644.935 236.738C620.354 265.021 604.491 282.998 598.982 288.811C591.017 297.215 590.628 298.144 592.689 303.798C599.523 322.556 598.176 336.017 588.415 346.451C583.331 351.886 578.485 354.109 571.761 354.088C563.506 354.062 558.033 350.927 554.652 344.289C550.798 336.719 553.679 328.007 566.339 308.954C570.249 303.068 573.655 297.568 573.906 296.732C574.527 294.659 573.035 292.449 562.603 280.016C557.694 274.165 553.296 268.779 552.828 268.048C552.36 267.317 551.661 266.718 551.273 266.718C549.941 266.718 531.431 286.84 517.015 303.96C478.712 349.444 467.287 359.518 454.011 359.518C446.607 359.518 443.052 357.129 439.727 349.916C438.145 346.483 437.989 345.088 438.055 335.108C438.147 321.779 441.125 300.136 444.461 288.569C447.305 278.715 447.311 278.116 444.562 278.116C441.226 278.116 435.482 280.078 432.239 282.325C429.121 284.487 417.414 299.05 409.291 310.874C403.405 319.444 396.105 332.424 383.698 356.384C376.379 370.518 373.737 374.909 371.026 377.445C365.228 382.871 360.701 382.526 358.134 376.464C357.066 373.939 357.426 367.973 359.739 349.962C362.11 331.494 362.768 328.176 366.278 317.029C368.511 309.936 368.534 308.027 366.374 308.855C365.734 309.102 361.953 309.826 357.973 310.466C349.018 311.907 346.661 312.872 342.313 316.88C337.997 320.858 334.16 321.637 331.027 319.167C328.579 317.237 328.476 316.447 330.304 313.671ZM555.588 234.993C555.073 232.156 552.694 232.931 550.517 236.648C548.425 240.217 548.041 243.081 549.331 245.492C550.497 247.671 551.32 247.312 553.362 243.732C555.398 240.16 556.056 237.578 555.588 234.993ZM583.609 314.971C581.461 308.898 580.021 309.348 574.619 317.781C567.125 329.48 566.021 331.702 566.021 335.088C566.021 337.397 566.511 338.705 567.886 340.082C569.967 342.161 570.597 342.272 574.328 341.202C580.415 339.456 585.02 331.895 584.98 323.709C584.967 320.985 584.353 317.067 583.609 314.971ZM685.577 136.524C684.607 135.556 682.792 136.031 680.347 137.894C678.279 139.473 677.754 140.535 677.046 144.605C676.584 147.265 676.204 151.208 676.204 153.368C676.204 156.663 676.428 157.295 677.592 157.295C678.653 157.295 679.808 155.205 682.531 148.354C686.046 139.506 686.56 137.509 685.577 136.524ZM691.514 100.304C690.919 95.4102 690.306 94.2248 688.378 94.2248C686.82 94.2248 686.002 96.3145 682.729 108.663C680.406 117.424 680.025 122.158 681.561 123.167C682.811 123.989 687.501 123.363 688.926 122.184C691.063 120.419 692.493 108.324 691.514 100.304ZM774.916 186.505C773.635 185.713 771.126 189.007 769.48 193.646C767.799 198.382 767.814 199.089 769.589 199.089C770.948 199.089 771.483 198.081 775.506 187.958C775.697 187.478 775.43 186.823 774.916 186.505Z" fill="#D8D8D8"/>
</svg>
