<svg width="150" height="117" viewBox="0 0 150 117" fill="none" xmlns="http://www.w3.org/2000/svg">
<path d="M5.91621 57.4406C6.29104 54.7842 6.39834 53.8496 7.02853 47.7339C7.1433 46.6193 7.28751 45.2273 7.34853 44.6406C7.40954 44.0539 7.55588 42.6378 7.67364 41.4939C7.7914 40.3501 7.98703 38.4778 8.10821 37.3339C8.22959 36.1901 8.33626 34.6754 8.34543 33.9686C8.36186 32.6957 8.36591 32.6752 8.78853 31.8353C9.13711 31.1426 9.2649 30.9815 9.48741 30.9555C9.66085 30.9352 9.83493 31.0075 9.96741 31.1545C10.2362 31.453 10.2249 32.3934 9.9209 35.0406C9.79973 36.0966 9.62949 37.7525 9.54288 38.7206C9.16528 42.945 8.83823 46.5327 8.74138 47.5206C8.52293 49.7403 8.49562 50.3185 8.60592 50.3865C8.66586 50.4239 8.96176 50.1209 9.26341 49.7141C10.4459 48.1188 11.4375 47.4673 12.6823 47.4673C13.8891 47.4673 15.0066 48.2658 15.4471 49.4434C15.7003 50.1205 15.7504 51.6685 15.5542 52.7543C14.9967 55.8359 13.132 59.5966 11.0627 61.8124C9.69007 63.2823 8.75973 63.4043 7.43663 62.2888C6.90181 61.8376 6.5225 61.6539 6.12655 61.6539C5.93626 61.6539 5.83834 61.5537 5.70693 61.2251C5.48037 60.6596 5.49253 60.4416 5.91621 57.4406ZM13.9213 50.2069C13.5435 49.1985 12.7881 48.8979 11.8428 49.38C11.6137 49.4969 11.2704 49.7892 11.0802 50.0294C10.6889 50.5235 9.66085 53.0291 8.76165 55.6806C8.21829 57.2832 8.1641 57.5266 8.15685 58.4006C8.14661 59.6537 8.36933 60.7646 8.69637 61.0916C8.93167 61.3267 8.96346 61.3318 9.25914 61.1789C9.96762 60.8126 11.4592 58.7031 12.4188 56.7112C13.7289 53.9912 14.3429 51.3331 13.9213 50.2069Z" fill="#D8D8D8"/>
<path d="M17.5868 52.6935C17.7976 51.0803 19.0697 46.2033 19.3952 45.7602C19.549 45.5509 19.6785 45.4965 19.9956 45.5074C20.4333 45.5223 20.6823 45.7496 20.6823 46.1344C20.6823 46.2588 20.5112 46.8858 20.3023 47.5273C19.4778 50.0585 19.0833 52.2293 19.0833 54.2402C19.0833 55.9962 19.3172 56.7469 19.8639 56.7469C19.9936 56.7469 20.4278 56.39 20.9539 55.8507C21.875 54.9062 22.5272 53.8756 25.9096 48.0179C26.6321 46.7665 27.3361 45.6687 27.4742 45.5785C27.7886 45.3724 28.3117 45.4622 28.6505 45.7805C29.0452 46.151 29.0351 46.2473 28.0384 51.7869C26.7838 58.7597 26.5014 60.861 25.3713 71.6269C25.3097 72.2135 25.2128 73.1017 25.1561 73.6002C25.0991 74.0988 24.9829 75.2561 24.8973 76.1717C24.8118 77.0876 24.6454 78.8636 24.5274 80.1184C24.4094 81.3734 24.2153 83.5042 24.0958 84.8535C23.9766 86.2029 23.8518 87.4549 23.8187 87.6363C23.7549 87.9851 23.9815 88.6573 24.2703 88.9766C24.4216 89.1437 24.4207 89.2094 24.2629 89.6851C24.0636 90.2852 23.7865 90.5841 23.2041 90.8275C22.8421 90.9788 22.7682 90.9803 22.5551 90.8407C22.0173 90.4883 22.0069 90.2942 22.3194 86.4657C23.1708 76.0358 24.1735 66.2131 24.9445 60.7469C25.2342 58.6935 25.6444 55.7683 25.8565 54.2464C26.0683 52.7243 26.2659 51.4402 26.2949 51.3931C26.3243 51.3457 26.2614 51.3092 26.1551 51.312C26.0282 51.3154 25.747 51.6706 25.3319 52.352C23.9298 54.6536 22.2823 57.0505 21.8392 57.4327C20.3667 58.7031 18.7742 58.7953 18.1046 57.6489C17.6745 56.9126 17.3905 54.1954 17.5868 52.6935Z" fill="#D8D8D8"/>
<path d="M62.8075 30.4392C63.1403 29.8931 63.6779 29.5469 64.1931 29.5469C64.786 29.5469 65.0111 29.6809 65.2692 30.1862C65.5401 30.7179 65.5399 31.1776 65.2677 31.7265C65.0049 32.2573 64.6343 32.5389 64.1053 32.6097C62.9989 32.7582 62.204 31.4289 62.8075 30.4392Z" fill="#D8D8D8"/>
<path d="M0.211824 20.9342C0.491931 20.3682 1.40756 19.4447 2.23849 18.89C3.565 18.0041 7.49097 16.6441 12.2545 15.4206C22.301 12.8401 30.7187 11.1537 47.4012 8.37974C61.6198 6.01537 60.8599 6.1344 68.8945 5.01654C71.4464 4.66155 73.8464 4.32426 74.2278 4.26687C75.5558 4.06762 82.8825 3.13984 86.0678 2.76779C87.0944 2.64789 88.3185 2.50389 88.7878 2.44799C89.2572 2.3921 90.4813 2.25109 91.5078 2.13461C92.5344 2.01834 93.8065 1.87221 94.3345 1.81013C96.4388 1.56202 100.95 1.05066 102.814 0.848424C109.66 0.106024 111.092 0.00106969 114.369 0.000429687C115.359 0.000216354 116.348 0 117.338 0C117.441 0.103893 117.546 0.207995 117.649 0.311888C118.12 0.782501 118.063 1.63733 117.542 1.91616C117.39 1.99744 117.159 1.95478 116.611 1.74379C115.528 1.328 114.253 1.30475 111.028 1.64203C109.591 1.79243 107.694 1.98997 106.814 2.08128C103.807 2.39338 95.6192 3.31371 91.5612 3.79585C89.3318 4.06059 87.0997 4.3247 86.6012 4.38251C79.271 5.23286 70.321 6.46762 61.0545 7.90677C59.5292 8.14357 57.7052 8.4256 57.0012 8.53333C56.2972 8.64085 54.785 8.8768 53.6412 9.05728C52.4973 9.23776 50.1809 9.6 48.4939 9.86262C46.8068 10.125 45.332 10.3906 45.2164 10.4523C45.1006 10.5141 44.9632 10.6479 44.9109 10.749C44.8584 10.8503 44.7829 11.9172 44.7434 13.12C44.6447 16.1077 44.3029 20.4625 43.9356 23.4133C43.8771 23.8827 43.7344 25.0586 43.6185 26.0267C43.2597 29.0204 42.7631 33.146 42.5457 34.9333C42.0988 38.6123 41.2689 46.3298 40.8996 50.24C40.6536 52.8465 40.3294 56.4147 40.1489 58.5067C40.0576 59.5627 39.9358 60.9306 39.8784 61.5467C39.7835 62.5643 39.6648 64.009 39.1876 69.9733C39.1006 71.0586 38.9805 72.6428 38.9201 73.4933C38.8599 74.3439 38.7618 75.6881 38.7021 76.48C38.6423 77.2719 38.4988 79.216 38.3829 80.8C38.2673 82.384 38.1022 84.6193 38.016 85.767C37.5582 91.8686 37.114 98.8173 36.7863 105.013C36.7272 106.128 36.6227 107.856 36.554 108.853C36.4851 109.851 36.4326 111.959 36.4375 113.538C36.4473 116.719 36.4501 116.706 35.7689 116.725C35.1213 116.744 34.96 116.465 34.8416 115.128C34.7334 113.906 34.8006 109.755 34.9692 107.253C35.0244 106.432 35.1204 104.8 35.1825 103.627C35.3047 101.317 35.3775 100.152 35.7758 94.1333C36.1318 88.7511 36.2398 87.1942 36.3562 85.76C36.4113 85.0852 36.4845 84.1013 36.5192 83.5733C36.554 83.0453 36.6285 82.0614 36.6841 81.3867C36.7398 80.7119 36.8823 78.8399 37.0005 77.2267C37.1187 75.6134 37.2629 73.7173 37.3212 73.0133C37.3792 72.3093 37.5232 70.4132 37.6412 68.8C38.2103 61.0172 38.9636 52.8026 40.0371 42.6667C40.1273 41.8161 40.2739 40.4239 40.3633 39.5733C40.7268 36.1158 41.188 32.1961 41.5938 29.12C42.1777 24.6903 42.404 22.8962 42.6637 20.64C42.9109 18.4915 43.2087 11.4963 43.0688 11.12C43.0044 10.9466 42.8936 10.88 42.6699 10.88C42.3889 10.88 38.7234 11.5208 34.1212 12.3746C23.69 14.3098 11.6403 17.0953 7.40116 18.5517C4.74687 19.4637 3.13087 20.1097 2.72084 20.4222C2.2178 20.806 1.56138 21.6267 1.61855 21.8005C1.67338 21.9678 2.71508 22.1728 4.06783 22.2824C5.32479 22.3846 5.69855 22.5393 5.81567 23.0063C5.87305 23.235 5.82761 23.3406 5.58143 23.5526C5.28276 23.8093 5.24842 23.8135 4.04522 23.7436C1.46602 23.5932 0.6434 23.3269 0.227827 22.5077C-0.071053 21.9187 -0.0753222 21.5142 0.211824 20.9342Z" fill="#D8D8D8"/>
<path d="M46.3659 44.0309C46.4707 43.872 46.7465 43.6027 46.9786 43.4321C47.8334 42.8045 48.1217 42.3163 48.2494 41.28C48.4107 39.9725 49.0511 38.1261 49.5045 37.6623C49.874 37.2842 50.444 37.2192 50.9763 37.4944C51.6391 37.8372 51.6726 38.4804 51.1186 40.2391C50.9014 40.9282 50.7567 41.5247 50.7968 41.565C50.8832 41.6514 51.4917 41.3241 52.5208 40.637C52.9315 40.3631 53.3558 40.1073 53.4637 40.0689C53.7481 39.968 54.3132 40.272 54.533 40.644C54.6955 40.9192 54.7043 41.0214 54.5937 41.3623C54.5231 41.5812 54.3546 41.952 54.2189 42.1866C53.8757 42.781 53.1599 44.6157 52.8376 45.7282C52.5338 46.7767 52.1022 49.057 52.191 49.1456C52.3348 49.2894 52.6518 48.7949 53.5358 47.0483C55.9156 42.3466 58.4551 38.8894 60.2247 37.9415C61.3364 37.3459 62.7796 37.2185 63.8038 37.6256C64.5649 37.9279 64.5748 38.1617 63.945 41.0792C63.6869 42.275 63.3475 44.0441 63.1904 45.0103C63.0953 45.5959 63.0002 46.1815 62.905 46.7671C63.0042 47.0656 63.1032 47.364 63.2024 47.6625C63.366 48.1549 63.5606 48.5807 63.6346 48.6093C63.7084 48.6376 64.118 48.5271 64.5449 48.3635C65.2628 48.0883 65.4294 47.958 66.77 46.6197C67.567 45.8242 69.9582 43.1814 72.0841 40.7466C75.3837 36.9679 75.9418 36.2809 75.8974 36.0533C75.8688 35.9065 75.7453 35.5033 75.6231 35.1569C75.4827 34.759 75.4008 34.2639 75.4008 33.8139C75.4008 32.883 75.8208 32.004 76.6014 31.3024C77.8087 30.2169 78.6496 30.1235 79.4541 30.9854C79.6931 31.2412 79.7197 31.3561 79.7106 32.0889C79.702 32.7539 79.6073 33.1919 79.2039 34.4343C78.9308 35.2746 78.7075 36.0535 78.7075 36.1653C78.7075 36.2771 79.2954 37.0551 80.0141 37.8942C80.7328 38.7332 81.4496 39.5742 81.6071 39.763C81.7647 39.952 81.9367 40.1066 81.9894 40.1066C82.0766 40.1066 86.147 36.0557 87.4552 34.6666C89.0921 32.9288 90.9413 30.401 92.1763 28.2133C92.377 27.8577 92.5775 27.5023 92.7783 27.1466C92.8163 26.6843 92.8542 26.2223 92.8922 25.76C93.3061 20.7221 93.3622 19.7713 93.2498 19.702C93.1333 19.6298 90.2972 20.1598 87.4541 20.7844C85.3434 21.2482 80.1012 22.3919 76.0941 23.2631C74.7356 23.5586 73.2849 23.9422 72.8431 24.1229C72.1993 24.3861 71.9367 24.4399 71.4795 24.4021C70.7446 24.3413 70.6759 24.2624 70.8459 23.6751C71.0787 22.8702 71.2442 22.8104 76.6275 21.5938C82.5054 20.2651 92.1449 18.1333 92.2793 18.1322C92.3535 18.1316 92.6578 18.0177 92.9556 17.879C93.6139 17.5725 93.7908 17.2493 93.9546 16.0533C94.2287 14.0516 94.7145 12.7264 95.4445 11.987C95.9232 11.5021 96.3732 11.3066 97.0112 11.3066C97.4543 11.3066 97.5584 11.3561 97.9625 11.7602C98.2162 12.0138 98.4736 12.4021 98.5464 12.6402C98.6191 12.8791 98.691 13.8575 98.7098 14.8657C98.7281 15.8553 98.7832 16.7038 98.8318 16.7511C98.8807 16.7985 99.9288 16.6515 101.161 16.4247C105.121 15.6956 112.044 14.4079 115.806 13.7009C117.818 13.3229 119.657 13.0133 119.891 13.0133C120.96 13.0133 121.186 14.2801 120.174 14.5996C119.983 14.6596 118.364 14.9749 116.574 15.3C114.785 15.6251 111.905 16.1527 110.174 16.4723C108.444 16.7919 105.181 17.3928 102.925 17.8076C98.8892 18.5495 98.8169 18.5672 98.4726 18.9009C98.2799 19.0876 98.0922 19.3393 98.0555 19.4602C97.8304 20.2003 96.5362 23.3463 95.8802 24.7466C94.4608 27.7777 94.4103 28.0375 94.304 32.8533C94.2181 36.7515 94.2955 39.4361 94.5398 41.0133C94.7433 42.3264 95.263 44 95.4674 44C95.9712 44 97.6882 41.0336 100.924 34.5713C101.816 32.791 102.376 31.8041 102.696 31.4451C103.147 30.9408 104.029 30.404 104.655 30.2532C105.3 30.0977 105.553 29.7009 106.126 27.9466C107.062 25.0809 107.688 24.0539 108.656 23.7933C109.742 23.5008 110.598 24.3712 110.6 25.7696C110.601 26.3934 110.229 27.7621 109.883 28.4079C109.712 28.7268 109.13 29.4105 108.505 30.0266C107.324 31.1912 107.035 31.6505 106.883 32.6003C106.742 33.4818 106.983 34.88 107.276 34.88C107.494 34.88 108.258 33.8818 109.564 31.8933C110.353 30.6905 111.195 29.4596 111.434 29.1577C111.967 28.4838 112.961 27.7064 113.75 27.345C114.625 26.9444 114.621 26.9542 114.978 24.48C115.046 24.0106 115.176 23.5426 115.268 23.44C115.496 23.1829 116.066 23.2 116.311 23.4707C116.499 23.678 116.501 23.7794 116.361 25.684C116.176 28.1877 116.173 28.3974 116.321 28.4478C116.386 28.4704 116.837 27.7549 117.322 26.8576C118.808 24.1075 119.484 23.012 120.05 22.4384C121.117 21.3551 122.354 21.0165 122.974 21.6371C123.429 22.0915 123.468 22.5489 123.193 24.2076C122.378 29.1181 122.172 31.3997 122.44 32.5444C122.663 33.4978 123.046 34.1873 123.673 34.7594C125.018 35.9893 126.878 36.0975 129.708 35.111C130.573 34.8096 136.613 32.3995 143.614 29.5626C146.906 28.2287 148.417 27.7525 148.86 27.9099C149.421 28.1096 149.629 28.7976 149.236 29.1533C149.131 29.2484 148.117 29.6426 146.983 30.0294C144.279 30.951 143.159 31.3988 135.454 34.6389C129.326 37.2162 128.849 37.3662 126.761 37.3681C123.369 37.3717 121.294 35.8321 120.77 32.9229C120.542 31.6576 120.64 30.4488 121.379 25.4073C121.619 23.7726 121.599 23.4935 121.255 23.6256C121.018 23.7167 120.578 24.4505 118.921 27.52C118.081 29.0747 117.252 30.5555 117.079 30.8106C116.657 31.4302 115.923 31.7261 115.351 31.5067C115.04 31.3873 114.645 30.4318 114.578 29.6394C114.544 29.2326 114.478 28.8761 114.431 28.8473C114.385 28.8185 113.989 29.1067 113.553 29.4873C112.789 30.1531 112.436 30.627 110.722 33.28C110.07 34.2901 109.158 35.4481 108.636 35.9281C107.831 36.669 107.148 36.8578 106.402 36.5463C105.644 36.2293 105.32 35.4357 105.216 33.6326C105.179 32.9988 105.126 32.372 105.099 32.24C105.032 31.911 104.749 31.9353 104.225 32.3149C103.829 32.6018 103.587 33.0408 101.494 37.2793C98.6654 43.0058 98.3226 43.5899 96.9903 44.9476C95.4983 46.4676 94.1342 45.8698 93.3208 43.3397C92.7956 41.7058 92.7702 41.4031 92.7143 36.1333C92.6725 32.1979 92.6326 31.1466 92.5257 31.1466C92.38 31.1466 91.9804 31.5641 90.5315 33.2315C87.081 37.2017 84.8542 39.7252 84.0809 40.5412C82.9628 41.7209 82.9082 41.8513 83.1975 42.6449C84.1568 45.2781 83.9678 47.1675 82.5976 48.6323C81.884 49.3952 81.2037 49.7073 80.2599 49.7043C79.1011 49.7007 78.3328 49.2606 77.8582 48.3287C77.3172 47.2661 77.7216 46.0433 79.4987 43.3687C80.0476 42.5425 80.5257 41.7704 80.5609 41.6531C80.6481 41.3621 80.4387 41.0519 78.9743 39.3066C78.2853 38.4853 77.6679 37.7293 77.6022 37.6266C77.5365 37.524 77.4383 37.44 77.3839 37.44C77.1968 37.44 74.5987 40.2645 72.575 42.6677C67.1983 49.0523 65.5945 50.4665 63.731 50.4665C62.6917 50.4665 62.1927 50.1312 61.7259 49.1187C61.5038 48.6368 61.4819 48.4409 61.4912 47.04C61.504 45.169 61.9222 42.131 62.3904 40.5073C62.7896 39.124 62.7904 39.04 62.4045 39.04C61.9363 39.04 61.1301 39.3154 60.6748 39.6307C60.2371 39.9343 58.5938 41.9784 57.4535 43.6382C56.6272 44.8411 55.6026 46.6632 53.8609 50.0266C52.8335 52.0106 52.4628 52.627 52.0822 52.983C51.2683 53.7446 50.6328 53.6962 50.2725 52.8452C50.1225 52.4908 50.1731 51.6533 50.4978 49.1251C50.8306 46.5327 50.9229 46.067 51.4157 44.5022C51.7291 43.5065 51.7323 43.2386 51.4292 43.3549C51.3394 43.3894 50.8086 43.4912 50.2499 43.581C48.9929 43.7832 48.662 43.9187 48.0517 44.4812C47.4458 45.0398 46.9071 45.149 46.4675 44.8023C46.1238 44.5314 46.1093 44.4205 46.3659 44.0309ZM77.9896 32.9866C77.9173 32.5883 77.5834 32.6971 77.2777 33.219C76.9841 33.7199 76.9302 34.122 77.1113 34.4604C77.2749 34.7663 77.3905 34.7159 77.6771 34.2133C77.9629 33.712 78.0553 33.3495 77.9896 32.9866ZM81.923 44.2133C81.6214 43.3608 81.4193 43.424 80.6609 44.6078C79.609 46.25 79.4541 46.5619 79.4541 47.0372C79.4541 47.3613 79.5228 47.5449 79.7159 47.7382C80.0079 48.0301 80.0965 48.0456 80.6202 47.8954C81.4746 47.6503 82.121 46.589 82.1155 45.44C82.1135 45.0575 82.0274 44.5075 81.923 44.2133ZM96.2364 19.1643C96.1003 19.0285 95.8456 19.095 95.5023 19.3566C95.212 19.5782 95.1384 19.7273 95.039 20.2986C94.9741 20.672 94.9208 21.2256 94.9208 21.5287C94.9208 21.9912 94.9522 22.08 95.1156 22.08C95.2645 22.08 95.4266 21.7866 95.8089 20.8249C96.3023 19.5829 96.3744 19.3026 96.2364 19.1643ZM97.0699 14.08C96.9863 13.393 96.9003 13.2266 96.6296 13.2266C96.4109 13.2266 96.2962 13.52 95.8366 15.2533C95.5107 16.4832 95.4571 17.1477 95.6728 17.2894C95.8482 17.4048 96.5065 17.3169 96.7066 17.1513C97.0065 16.9036 97.2073 15.2057 97.0699 14.08ZM108.777 26.1802C108.597 26.0691 108.245 26.5314 108.014 27.1827C107.778 27.8474 107.78 27.9466 108.029 27.9466C108.22 27.9466 108.295 27.8052 108.86 26.3842C108.887 26.3168 108.849 26.2248 108.777 26.1802Z" fill="#D8D8D8"/>
</svg>
